<svg width="32" height="24" viewBox="0 0 32 24" fill="none" xmlns="http://www.w3.org/2000/svg">
<path d="M15.9763 17.7095C14.9447 17.7095 13.9131 17.3816 13.0332 16.7171L0 6.89658V20.6123C0 22.2149 1.34114 23.5151 2.99556 23.5151H28.9571C30.6115 23.5151 31.9527 22.2155 31.9527 20.6123V6.89658L18.922 16.7238C18.042 17.3829 17.0061 17.7095 15.9763 17.7095ZM1.01662 5.20933L14.2595 15.1937C15.2699 15.9557 16.6853 15.9557 17.6957 15.1937L30.9385 5.20933C31.522 4.72554 31.9527 3.98169 31.9527 3.19552C31.9527 1.59233 30.6109 0.292725 28.9571 0.292725H2.99556C1.34114 0.292725 0 1.59233 0 3.19552C0 3.98169 0.375069 4.72554 1.01662 5.20933Z" fill="#F1F1F1"/>
</svg>
