<svg width="32" height="31" viewBox="0 0 32 31" fill="none" xmlns="http://www.w3.org/2000/svg">
<path d="M16 0C7.1625 0 0 6.93867 0 15.5C0 24.0613 7.1625 31 16 31C24.8375 31 32 24.0613 32 15.5C32 6.93867 24.8375 0 16 0ZM16 24.2188C14.875 24.2188 14 23.3711 14 22.2812C14 21.1914 14.8188 20.3438 16 20.3438C17.0688 20.3438 18 21.1914 18 22.2812C18 23.3711 17.0688 24.2188 16 24.2188ZM20.3188 15.6211L17.5 17.3164V17.4375C17.5 18.2246 16.8125 18.8906 16 18.8906C15.1875 18.8906 14.5 18.2246 14.5 17.4375V16.4688C14.5 15.9844 14.75 15.5 15.25 15.1973L18.8125 13.1387C19.25 12.8965 19.5 12.4727 19.5 11.9883C19.5 11.2617 18.8188 10.6562 18.0688 10.6562H14.875C14.0688 10.6562 13.5 11.2617 13.5 11.9883C13.5 12.7754 12.8125 13.4414 12 13.4414C11.1875 13.4414 10.5 12.7754 10.5 11.9883C10.5 9.62695 12.4375 7.75 14.8188 7.75H18.0125C20.5625 7.75 22.5 9.62695 22.5 11.9883C22.5 13.4414 21.6875 14.834 20.3188 15.6211Z" fill="#FFFEFE"/>
</svg>
